<svg width="80" height="80" viewBox="0 0 80 80" fill="none" xmlns="http://www.w3.org/2000/svg">
<path d="M75.3291 25.7953L79.9398 11.9595C80.0589 11.6022 79.9989 11.2094 79.7788 10.9037C79.5584 10.5981 79.2048 10.4172 78.8281 10.4172H63.2688V5.90625C63.2688 5.25906 62.7441 4.73438 62.0969 4.73438H47.1594C46.5122 4.73438 45.9875 5.25906 45.9875 5.90625C45.9875 6.55344 46.5122 7.07812 47.1594 7.07812H60.925V33.1453H36.4367V7.07812H41.6906C42.3378 7.07812 42.8625 6.55344 42.8625 5.90625C42.8625 5.25906 42.3378 4.73438 41.6906 4.73438H36.4367V2.75031C36.4367 1.23375 35.203 0 33.6864 0H30.5297C29.0131 0 27.7794 1.23375 27.7794 2.75031V38.6703H24.7531C23.1356 38.6703 21.5342 39.2066 20.2441 40.1803L18.9628 41.1475C18.4462 41.5373 18.3436 42.2722 18.7336 42.7887C18.9641 43.0941 19.3147 43.2547 19.6698 43.2547C19.9156 43.2547 20.1636 43.1775 20.375 43.018L21.6562 42.0509C22.5422 41.3823 23.6422 41.0141 24.7534 41.0141H27.7798V44.9844H25.1625C24.5153 44.9844 23.9906 45.5091 23.9906 46.1562C23.9906 46.8034 24.5153 47.3281 25.1625 47.3281H41.5031C42.6006 47.3281 43.5242 48.1852 43.5617 49.2387C43.5813 49.7837 43.3841 50.2992 43.007 50.6902C42.6294 51.0814 42.1219 51.297 41.5781 51.297C41.575 51.297 41.5722 51.2975 41.5691 51.2975H28.9514C28.3042 51.2975 27.7795 51.8222 27.7795 52.4694C27.7795 53.1166 28.3042 53.6412 28.9514 53.6412L44.6594 53.6406C45.7578 53.6406 46.6819 54.4984 46.7195 55.5517C46.7386 56.0973 46.5409 56.6133 46.1631 57.0045C45.7855 57.3956 45.278 57.6109 44.7344 57.6109H28.9514C28.3042 57.6109 27.7795 58.1356 27.7795 58.7828C27.7795 59.43 28.3042 59.9547 28.9514 59.9547H41.5767H41.5783C42.1217 59.9547 42.6291 60.1703 43.0069 60.5617C43.3842 60.9528 43.5814 61.4681 43.5619 62.013C43.5242 63.0673 42.6008 63.925 41.5033 63.925L28.9514 63.9244C28.3042 63.9244 27.7795 64.4491 27.7795 65.0963C27.7795 65.7434 28.3042 66.2681 28.9514 66.2681H38.4083C38.4128 66.2681 38.4173 66.2688 38.4219 66.2688C38.9656 66.2688 39.4731 66.4842 39.8508 66.8756C40.228 67.2664 40.425 67.7819 40.4055 68.327C40.368 69.3805 39.4437 70.2375 38.3448 70.2375L7.39531 70.2495V48.7484H10.275C11.8934 48.7484 13.495 48.2114 14.7845 47.2366L16.0111 46.31C16.5275 45.9198 16.6298 45.185 16.2397 44.6686C15.8497 44.1522 15.1145 44.0497 14.5983 44.4398L13.3712 45.3667C12.4859 46.0361 11.3863 46.4047 10.2748 46.4047L1.17188 46.4044C0.524687 46.4044 0 46.9291 0 47.5763V71.4227C0 72.0698 0.524687 72.5945 1.17188 72.5945L27.7795 72.5855V77.2498C27.7795 78.7664 29.0133 80.0002 30.5298 80.0002H33.6866C35.2031 80.0002 36.4369 78.7664 36.4369 77.2498V72.582L38.3453 72.5812C40.6909 72.5812 42.6658 70.7102 42.7477 68.4105C42.7756 67.6286 42.5984 66.8742 42.2389 66.2067C44.2475 65.8648 45.8308 64.1519 45.9041 62.0966C45.9319 61.3192 45.7567 60.5692 45.4012 59.9044C46.3305 59.7622 47.1823 59.3231 47.8491 58.6328C48.6725 57.7802 49.1033 56.657 49.0619 55.4694C48.9873 53.3763 47.4317 51.6888 45.3967 51.3564C45.7553 50.6895 45.9319 49.9361 45.9041 49.1553C45.8208 46.8166 43.8877 44.9845 41.5033 44.9845H36.4369V35.4892H44.5111V40C44.5233 40.5533 44.9338 41.1691 45.6859 41.1719H64.9422C65.5894 41.1719 66.1141 40.6472 66.1141 40C66.1141 39.3528 65.5894 38.8281 64.9422 38.8281H52.65L62.4806 35.4253C62.8978 35.2797 63.2948 34.8387 63.2688 34.2788V12.7609H77.2023L72.982 25.4248C72.9019 25.6653 72.9019 25.9253 72.982 26.1659L77.2023 38.8283H70.4109C69.7637 38.8283 69.2391 39.353 69.2391 40.0002C69.2391 40.6473 69.7637 41.172 70.4109 41.172H78.8281C79.2048 41.172 79.5586 40.9909 79.7788 40.6853C79.9989 40.3797 80.0589 39.9869 79.9398 39.6295L75.3291 25.7953ZM2.34375 48.7481H5.05156V70.2508H2.34375V48.7481ZM34.0931 77.2497C34.0931 77.4739 33.9108 77.6562 33.6866 77.6562H30.5298C30.3056 77.6562 30.1233 77.4739 30.1233 77.2497V72.5844L34.0931 72.5828V77.2497ZM30.1233 44.9844V2.75031C30.1233 2.52609 30.3056 2.34375 30.5298 2.34375H33.6866C33.9108 2.34375 34.0931 2.52609 34.0931 2.75031V44.9844H30.1233ZM55.1314 35.4891L46.8547 38.3541V35.4891H55.1314Z" fill="url(#paint0_linear_98_169)"/>
<defs>
<linearGradient id="paint0_linear_98_169" x1="-14.9375" y1="-4.20583e-07" x2="94.8715" y2="33.3334" gradientUnits="userSpaceOnUse">
<stop stop-color="#4BD8B5"/>
<stop offset="1" stop-color="#49D6DF"/>
</linearGradient>
</defs>
</svg>
