<svg width="18" height="30" viewBox="0 0 18 30" fill="none" xmlns="http://www.w3.org/2000/svg">
<path d="M0.666298 16.1706L14.0167 29.5207C14.3255 29.8298 14.7376 30 15.1772 30C15.6167 30 16.0289 29.8298 16.3376 29.5207L17.3208 28.5378C17.9605 27.8973 17.9605 26.8564 17.3208 26.2169L6.11016 15.0062L17.3332 3.78314C17.642 3.47412 17.8125 3.06217 17.8125 2.6229C17.8125 2.18315 17.642 1.7712 17.3332 1.46194L16.3501 0.479263C16.0411 0.17024 15.6291 0 15.1896 0C14.7501 0 14.3379 0.17024 14.0291 0.479263L0.666298 13.8416C0.356789 14.1516 0.18679 14.5655 0.187767 15.0055C0.18679 15.4472 0.356789 15.8608 0.666298 16.1706Z" fill="#E0E0E0"/>
</svg>
