<svg width="18" height="30" viewBox="0 0 18 30" fill="none" xmlns="http://www.w3.org/2000/svg">
<path d="M17.3337 13.8294L3.98332 0.479264C3.67454 0.170243 3.26235 0 2.82284 0C2.38334 0 1.97114 0.170243 1.66237 0.479264L0.679203 1.46218C0.0394526 2.10267 0.0394526 3.14363 0.679203 3.78314L11.8898 14.9938L0.666764 26.2169C0.357986 26.5259 0.1875 26.9378 0.1875 27.3771C0.1875 27.8168 0.357986 28.2288 0.666764 28.5381L1.64993 29.5207C1.95895 29.8298 2.3709 30 2.81041 30C3.24991 30 3.66211 29.8298 3.97088 29.5207L17.3337 16.1584C17.6432 15.8484 17.8132 15.4345 17.8122 14.9945C17.8132 14.5528 17.6432 14.1392 17.3337 13.8294Z" fill="#FEFEFE"/>
</svg>
