<svg width="20" height="14" viewBox="0 0 20 14" fill="none" xmlns="http://www.w3.org/2000/svg">
<path d="M19.15 1.575C18.6075 0.61 18.0188 0.4325 16.82 0.365C15.6225 0.28375 12.6112 0.25 10.0025 0.25C7.38875 0.25 4.37625 0.28375 3.18 0.36375C1.98375 0.4325 1.39375 0.60875 0.84625 1.575C0.2875 2.53875 0 4.19875 0 7.12125C0 7.12375 0 7.125 0 7.125C0 7.1275 0 7.12875 0 7.12875V7.13125C0 10.0413 0.2875 11.7137 0.84625 12.6675C1.39375 13.6325 1.9825 13.8075 3.17875 13.8888C4.37625 13.9588 7.38875 14 10.0025 14C12.6112 14 15.6225 13.9587 16.8212 13.89C18.02 13.8087 18.6087 13.6338 19.1513 12.6688C19.715 11.715 20 10.0425 20 7.1325C20 7.1325 20 7.12875 20 7.12625C20 7.12625 20 7.12375 20 7.1225C20 4.19875 19.715 2.53875 19.15 1.575ZM7.5 10.875V3.375L13.75 7.125L7.5 10.875Z" fill="#FEFEFE"/>
</svg>
