<svg width="80" height="76" viewBox="0 0 80 76" fill="none" xmlns="http://www.w3.org/2000/svg">
<path d="M62.9408 14.5625C62.9408 9.12562 59.383 0.5 49.8361 0.5C45.9136 0.5 42.6141 2.34922 40.0002 6.00453C37.3863 2.34922 34.0866 0.5 30.1643 0.5C20.6172 0.5 17.0596 9.12562 17.0596 14.5625C17.0596 23.9364 24.3755 29.8 34.37 38.3464C35.8386 39.602 37.3572 40.9006 38.9763 42.3053C39.27 42.5602 39.635 42.6875 40.0002 42.6875C40.3654 42.6875 40.7304 42.5602 41.0241 42.3053C42.6432 40.9006 44.1618 39.602 45.6304 38.3464C56.0938 29.3991 62.9408 23.7383 62.9408 14.5625ZM40.0002 39.0588C38.7516 37.9813 37.5608 36.963 36.401 35.9711C25.9444 27.03 20.1846 22.1047 20.1846 14.5625C20.1846 9.44641 23.5316 3.625 30.1643 3.625C33.6257 3.625 36.3946 5.6125 38.6293 9.70094C38.9032 10.2022 39.4289 10.5141 40.0002 10.5141C40.5714 10.5141 41.0972 10.2022 41.3711 9.70094C43.6058 5.6125 46.3747 3.625 49.8361 3.625C56.3761 3.625 59.8158 9.36 59.8158 14.5625C59.8158 22.1047 54.056 27.03 43.5994 35.9713C42.4396 36.963 41.2488 37.9813 40.0002 39.0588Z" fill="url(#paint0_linear_98_1411)"/>
<path d="M11.2278 61.7678L18.75 65.5283V73.9375C18.75 74.8003 19.4497 75.5 20.3125 75.5H36.875C37.7378 75.5 38.4375 74.8003 38.4375 73.9375V53.5391C38.4375 48.7519 34.8464 44.782 30.0961 44.3058L29.9683 44.292C27.2188 44.0164 22.3503 42.1358 20.428 40.2136L16.9189 36.7059C15.7381 35.5253 14.1689 34.875 12.5 34.875V22.375C12.5 18.9288 9.69625 16.125 6.25 16.125C2.80375 16.125 0 18.9288 0 22.375V43.6C0 51.2897 4.34344 58.3248 11.2278 61.7678ZM3.125 22.375C3.125 20.6519 4.52688 19.25 6.25 19.25C7.97312 19.25 9.375 20.6519 9.375 22.375V35.7127C7.46938 36.8145 6.25 38.8689 6.25 41.125C6.25 42.7939 6.90031 44.3631 8.08109 45.5438L16.0827 53.5469C16.6927 54.1572 17.682 54.1572 18.2923 53.547C18.9025 52.937 18.9027 51.9477 18.2925 51.3373L10.2909 43.3341C9.70016 42.7436 9.375 41.9591 9.375 41.125C9.375 39.8025 10.212 38.6181 11.4581 38.178C11.4583 38.178 11.4586 38.1778 11.4587 38.1777C11.4591 38.1775 11.4595 38.1775 11.4598 38.1773C12.5377 37.7948 13.8161 38.0227 14.7094 38.9161L18.2184 42.4238C21.8412 46.0466 29.7564 47.4097 29.7722 47.4141C32.9306 47.7306 35.3123 50.3639 35.3123 53.5391V72.375H21.8748V64.5625C21.8748 63.9706 21.5403 63.4295 21.0111 63.165L12.6253 58.9728C6.76547 56.042 3.125 50.1516 3.125 43.6V22.375Z" fill="url(#paint1_linear_98_1411)"/>
<path d="M71.7188 59.5625C72.5817 59.5625 73.2812 58.8629 73.2812 58C73.2812 57.1371 72.5817 56.4375 71.7188 56.4375C70.8558 56.4375 70.1562 57.1371 70.1562 58C70.1562 58.8629 70.8558 59.5625 71.7188 59.5625Z" fill="url(#paint2_linear_98_1411)"/>
<path d="M73.75 16.125C70.3037 16.125 67.5 18.9288 67.5 22.375V34.875C65.8311 34.875 64.2619 35.5253 63.0814 36.7059L59.5717 40.2139C57.6497 42.1359 52.7812 44.0166 50.0195 44.2933L49.9161 44.3045C45.1536 44.782 41.5625 48.752 41.5625 53.5391V73.9375C41.5625 74.8003 42.2622 75.5 43.125 75.5H59.6875C60.5503 75.5 61.25 74.8003 61.25 73.9375V65.5283L66.3641 62.9717C67.1358 62.5858 67.4487 61.6473 67.063 60.8755C66.677 60.1038 65.7384 59.7905 64.9667 60.1766L58.9888 63.165C58.4595 63.4295 58.125 63.9706 58.125 64.5625V72.375H44.6875V53.5391C44.6875 50.3639 47.0692 47.7306 50.2398 47.4128L50.3433 47.4016C53.7325 47.0617 59.3442 44.8608 61.7811 42.4239L65.2908 38.9159C66.1866 38.0198 67.4675 37.7969 68.54 38.1773C68.5403 38.1775 68.5408 38.1775 68.5411 38.1777C68.5412 38.1777 68.5416 38.1778 68.5417 38.178C69.788 38.6181 70.625 39.8025 70.625 41.125C70.625 41.9591 70.2998 42.7436 69.7092 43.3344L61.7077 51.3375C61.0975 51.9477 61.0977 52.937 61.7078 53.5472C62.3177 54.1573 63.3073 54.1573 63.9175 53.547L71.9191 45.5441C73.0997 44.3631 73.75 42.7939 73.75 41.125C73.75 38.8689 72.5306 36.8145 70.625 35.7127V22.375C70.625 20.6519 72.0269 19.25 73.75 19.25C75.4731 19.25 76.875 20.6519 76.875 22.375V43.6C76.875 46.4587 76.1536 49.2969 74.7886 51.8075C74.3763 52.5658 74.6567 53.5144 75.415 53.9266C76.173 54.3387 77.122 54.0586 77.5341 53.3002C79.1473 50.3328 80 46.9786 80 43.6V22.375C80 18.9288 77.1963 16.125 73.75 16.125Z" fill="url(#paint3_linear_98_1411)"/>
<defs>
<linearGradient id="paint0_linear_98_1411" x1="8.49268" y1="0.5" x2="70.5134" y2="20.9753" gradientUnits="userSpaceOnUse">
<stop stop-color="#4BD8B5"/>
<stop offset="1" stop-color="#49D6DF"/>
</linearGradient>
<linearGradient id="paint1_linear_98_1411" x1="-7.177" y1="16.125" x2="48.302" y2="27.0274" gradientUnits="userSpaceOnUse">
<stop stop-color="#4BD8B5"/>
<stop offset="1" stop-color="#49D6DF"/>
</linearGradient>
<linearGradient id="paint2_linear_98_1411" x1="69.5728" y1="56.4375" x2="73.8622" y2="57.7396" gradientUnits="userSpaceOnUse">
<stop stop-color="#4BD8B5"/>
<stop offset="1" stop-color="#49D6DF"/>
</linearGradient>
<linearGradient id="paint3_linear_98_1411" x1="34.3855" y1="16.125" x2="89.8645" y2="27.0274" gradientUnits="userSpaceOnUse">
<stop stop-color="#4BD8B5"/>
<stop offset="1" stop-color="#49D6DF"/>
</linearGradient>
</defs>
</svg>
