<svg width="78" height="80" viewBox="0 0 78 80" fill="none" xmlns="http://www.w3.org/2000/svg">
<path d="M59.7032 55.2291L48.1991 61.1382C47.2029 60.1345 45.8234 59.5119 44.301 59.5119H36.3736C36.0209 59.5119 35.8919 59.4902 35.8531 59.481C35.7813 59.4322 35.6021 59.2636 35.4567 59.1268L35.381 59.0554C28.9285 52.9791 23.4761 53.3645 17.2751 55.8119C16.3047 56.1947 16.2863 56.1955 15.3244 56.2394L13.5781 56.2416C13.033 54.6965 11.5603 53.5859 9.83269 53.5859H3.99985C1.80995 53.5859 0.0283203 55.3696 0.0283203 57.562V72.8592C0.0283203 75.0492 1.80995 76.8309 3.99985 76.8309H9.83253C11.5603 76.8309 13.033 75.7216 13.5781 74.178H16.7856C17.1487 74.2094 17.5028 74.2833 17.8479 74.3996L32.9311 78.4328C33.5915 78.6119 34.1979 78.7881 34.7844 78.9586C36.7323 79.5246 38.3697 80.0004 40.077 80.0002C42.0058 80.0002 44.0237 79.3929 46.6782 77.6222C46.6915 77.6133 46.7046 77.6044 46.7176 77.5952L65.3148 64.3521C67.7594 62.608 68.472 59.4599 66.9718 57.0281C65.4889 54.6306 62.3631 53.8576 59.7032 55.2291ZM10.6792 72.8594C10.6792 73.3184 10.2914 73.7062 9.83253 73.7062H3.99985C3.5408 73.7062 3.15317 73.3184 3.15317 72.8594V57.5621C3.15317 57.1008 3.54096 56.7109 3.99985 56.7109H9.83253C10.2916 56.7109 10.6792 57.1008 10.6792 57.5621V72.8594ZM63.5008 61.8077L44.9244 75.036C41.1433 77.5526 39.5342 77.0848 35.656 75.958C35.0563 75.7837 34.4362 75.6036 33.7434 75.4156L18.6562 71.3813C18.0492 71.193 17.4254 71.0837 16.7853 71.0533H13.8041V59.3681L15.4666 59.3611C16.6558 59.3069 17.0245 59.27 18.422 58.7188C23.7967 56.5974 27.9443 56.3447 33.24 61.3316L33.3148 61.402C34.2267 62.2605 34.7916 62.6366 36.3736 62.6366H44.301C45.608 62.6366 46.6712 63.7 46.6712 65.0069C46.6712 66.3116 45.608 67.3729 44.301 67.3729H31.449C30.586 67.3729 29.8865 68.0724 29.8865 68.9353C29.8865 69.7983 30.586 70.4978 31.449 70.4978H44.301C47.331 70.4978 49.796 68.0346 49.796 65.0069C49.796 64.6241 49.7564 64.2504 49.6815 63.8895L61.1328 58.0074C62.1767 57.4695 63.6046 57.5247 64.313 58.6704C64.9376 59.683 64.588 61.0321 63.5008 61.8077Z" fill="url(#paint0_linear_98_1048)"/>
<path d="M35.9923 36.9558C34.301 37.7797 33.1325 39.5162 33.1325 41.5206C33.1325 43.7307 34.5555 45.6137 36.5337 46.3062V48.6332C36.5337 51.4826 38.8498 53.8008 41.6966 53.8008H48.6186C51.4678 53.8008 53.786 51.4826 53.786 48.6332V46.3062C55.7642 45.6137 57.1872 43.7305 57.1872 41.5206C57.1872 39.516 56.0187 37.7795 54.3272 36.9557C55.0114 34.4139 56.3983 32.5214 57.857 30.5361C60.101 27.4822 62.6443 24.0208 62.6388 17.9238C62.6388 17.3794 62.6163 16.8207 62.572 16.2631C62.5035 15.4028 61.7525 14.763 60.8905 14.8294C60.0304 14.8978 59.3885 15.6506 59.457 16.5109C59.4948 16.9863 59.514 17.4616 59.514 17.925C59.5185 22.9973 57.4883 25.7604 55.3387 28.6858C53.7077 30.9055 52.0292 33.1937 51.2294 36.4459H39.0897C38.2899 33.194 36.6109 30.906 34.9795 28.6864C32.8293 25.7611 30.7985 22.9979 30.8052 17.9255C30.8121 12.5169 33.1293 9.10109 35.0722 7.18806C37.7474 4.55381 41.4117 3.07326 45.1375 3.12576C45.1525 3.12592 45.1673 3.12592 45.1823 3.12576C48.218 3.07967 51.2625 4.06915 53.748 5.90672C54.4416 6.41966 55.4203 6.27295 55.9332 5.57923C56.4462 4.88536 56.2996 3.90697 55.6057 3.39403C52.5795 1.15695 48.8706 -0.0465861 45.1595 0.00138035C40.6146 -0.0540857 36.1412 1.75067 32.88 4.96208C29.4851 8.30504 27.6872 12.7865 27.6807 17.9219C27.6726 24.0215 30.2171 27.4833 32.462 30.5375C33.9208 32.5223 35.3081 34.4145 35.9923 36.9558ZM50.6613 48.6334C50.6613 49.7597 49.7451 50.6761 48.6187 50.6761H41.6967C40.5729 50.6761 39.6587 49.7597 39.6587 48.6334V46.5908H50.6613V48.6334ZM38.2069 39.571H52.1129C53.1879 39.571 54.0625 40.4457 54.0625 41.5206C54.0625 42.5932 53.188 43.4658 52.1129 43.4658H38.2069C37.1319 43.4658 36.2573 42.5932 36.2573 41.5206C36.2573 40.4457 37.1319 39.571 38.2069 39.571Z" fill="url(#paint1_linear_98_1048)"/>
<path d="M46.7225 11.414C46.7225 10.5511 46.023 9.85156 45.1601 9.85156C44.2972 9.85156 43.5977 10.5511 43.5977 11.414V21.1043C43.5977 21.9672 44.2972 22.6667 45.1601 22.6667C46.023 22.6667 46.7225 21.9672 46.7225 21.1043V11.414Z" fill="url(#paint2_linear_98_1048)"/>
<path d="M45.1602 26.6094C44.2972 26.6094 43.5977 27.3089 43.5977 28.1719V28.1808C43.5977 29.0437 44.2972 29.7389 45.1602 29.7389C46.0231 29.7389 46.7227 29.035 46.7227 28.172C46.7227 27.3091 46.0231 26.6094 45.1602 26.6094Z" fill="url(#paint3_linear_98_1048)"/>
<path d="M76.4092 17.9121H70.0629C69.2 17.9121 68.5005 18.6116 68.5005 19.4745C68.5005 20.3375 69.2 21.037 70.0629 21.037H76.4092C77.2721 21.037 77.9716 20.3375 77.9716 19.4745C77.9716 18.6116 77.2721 17.9121 76.4092 17.9121Z" fill="url(#paint4_linear_98_1048)"/>
<path d="M67.4377 7.84684C67.737 7.84684 68.0397 7.7609 68.3069 7.58154L73.5725 4.04733C74.2891 3.56642 74.48 2.59584 73.9991 1.87931C73.5183 1.16294 72.5477 0.971859 71.8311 1.45277L66.5654 4.98698C65.8489 5.46789 65.6579 6.43862 66.1388 7.15499C66.4406 7.60419 66.9344 7.84684 67.4377 7.84684Z" fill="url(#paint5_linear_98_1048)"/>
<path d="M73.573 34.901L68.3073 31.3668C67.5908 30.8859 66.6201 31.077 66.1393 31.7934C65.6584 32.5097 65.8495 33.4805 66.5658 33.9614L71.8315 37.4956C72.0987 37.675 72.4013 37.7609 72.7007 37.7609C73.2039 37.7609 73.698 37.5183 73.9995 37.0691C74.4804 36.3525 74.2895 35.3818 73.573 34.901Z" fill="url(#paint6_linear_98_1048)"/>
<path d="M13.9111 21.037H20.2529C21.1159 21.037 21.8154 20.3375 21.8154 19.4745C21.8154 18.6116 21.1159 17.9121 20.2529 17.9121H13.9111C13.0481 17.9121 12.3486 18.6116 12.3486 19.4745C12.3486 20.3375 13.0481 21.037 13.9111 21.037Z" fill="url(#paint7_linear_98_1048)"/>
<path d="M16.7475 4.04733L22.0132 7.58154C22.2804 7.7609 22.583 7.84684 22.8824 7.84684C23.3856 7.84684 23.8797 7.60419 24.1812 7.15499C24.6621 6.43862 24.4711 5.46789 23.7547 4.98698L18.489 1.45277C17.7725 0.971859 16.8019 1.16294 16.321 1.87931C15.8401 2.59569 16.031 3.56642 16.7475 4.04733Z" fill="url(#paint8_linear_98_1048)"/>
<path d="M22.0132 31.3668L16.7475 34.901C16.031 35.382 15.8401 36.3527 16.321 37.0691C16.6225 37.5183 17.1164 37.7609 17.6198 37.7609C17.9192 37.7609 18.2218 37.675 18.489 37.4956L23.7547 33.9614C24.4712 33.4805 24.6621 32.5097 24.1812 31.7934C23.7003 31.077 22.7296 30.8859 22.0132 31.3668Z" fill="url(#paint9_linear_98_1048)"/>
<path d="M57.9748 10.8183C58.2795 11.1228 58.6778 11.2749 59.0764 11.2749C59.4764 11.2749 59.8767 11.1218 60.1824 10.8161C60.7925 10.206 60.7903 9.21441 60.1802 8.6041C59.57 7.99395 58.5806 7.99395 57.9703 8.6041C57.3602 9.21426 57.3602 10.2036 57.9703 10.8139L57.9748 10.8183Z" fill="url(#paint10_linear_98_1048)"/>
<defs>
<linearGradient id="paint0_linear_98_1048" x1="-12.6174" y1="53.5859" x2="50.6089" y2="102.796" gradientUnits="userSpaceOnUse">
<stop stop-color="#4BD8B5"/>
<stop offset="1" stop-color="#49D6DF"/>
</linearGradient>
<linearGradient id="paint1_linear_98_1048" x1="21.1533" y1="-2.82846e-07" x2="71.5965" y2="9.94958" gradientUnits="userSpaceOnUse">
<stop stop-color="#4BD8B5"/>
<stop offset="1" stop-color="#49D6DF"/>
</linearGradient>
<linearGradient id="paint2_linear_98_1048" x1="43.0142" y1="9.85156" x2="47.6731" y2="10.1964" gradientUnits="userSpaceOnUse">
<stop stop-color="#4BD8B5"/>
<stop offset="1" stop-color="#49D6DF"/>
</linearGradient>
<linearGradient id="paint3_linear_98_1048" x1="43.0142" y1="26.6094" x2="47.3046" y2="27.9099" gradientUnits="userSpaceOnUse">
<stop stop-color="#4BD8B5"/>
<stop offset="1" stop-color="#49D6DF"/>
</linearGradient>
<linearGradient id="paint4_linear_98_1048" x1="66.7321" y1="17.9121" x2="74.4212" y2="24.9866" gradientUnits="userSpaceOnUse">
<stop stop-color="#4BD8B5"/>
<stop offset="1" stop-color="#49D6DF"/>
</linearGradient>
<linearGradient id="paint5_linear_98_1048" x1="64.3068" y1="1.1875" x2="75.2801" y2="5.38466" gradientUnits="userSpaceOnUse">
<stop stop-color="#4BD8B5"/>
<stop offset="1" stop-color="#49D6DF"/>
</linearGradient>
<linearGradient id="paint6_linear_98_1048" x1="64.3073" y1="31.1016" x2="75.2806" y2="35.2987" gradientUnits="userSpaceOnUse">
<stop stop-color="#4BD8B5"/>
<stop offset="1" stop-color="#49D6DF"/>
</linearGradient>
<linearGradient id="paint7_linear_98_1048" x1="10.581" y1="17.9121" x2="18.2699" y2="24.983" gradientUnits="userSpaceOnUse">
<stop stop-color="#4BD8B5"/>
<stop offset="1" stop-color="#49D6DF"/>
</linearGradient>
<linearGradient id="paint8_linear_98_1048" x1="14.4889" y1="1.1875" x2="25.4622" y2="5.38465" gradientUnits="userSpaceOnUse">
<stop stop-color="#4BD8B5"/>
<stop offset="1" stop-color="#49D6DF"/>
</linearGradient>
<linearGradient id="paint9_linear_98_1048" x1="14.4889" y1="31.1016" x2="25.4623" y2="35.2987" gradientUnits="userSpaceOnUse">
<stop stop-color="#4BD8B5"/>
<stop offset="1" stop-color="#49D6DF"/>
</linearGradient>
<linearGradient id="paint10_linear_98_1048" x1="56.929" y1="8.14648" x2="61.2205" y2="9.4483" gradientUnits="userSpaceOnUse">
<stop stop-color="#4BD8B5"/>
<stop offset="1" stop-color="#49D6DF"/>
</linearGradient>
</defs>
</svg>
