<svg width="20" height="12" viewBox="0 0 20 12" fill="none" xmlns="http://www.w3.org/2000/svg">
<path d="M19.8217 10.1784C19.768 10.0883 19.4355 9.36579 17.8353 7.88068C16.1602 6.32557 16.3852 6.57809 18.4029 3.88914C19.6317 2.25152 20.123 1.25145 19.9692 0.823916C19.823 0.416387 18.9192 0.523894 18.9192 0.523894L15.9139 0.541396C15.9139 0.541396 15.6914 0.511393 15.5252 0.610151C15.3639 0.707658 15.2601 0.932674 15.2601 0.932674C15.2601 0.932674 14.7839 2.20027 14.1488 3.27785C12.81 5.55176 12.2737 5.67177 12.0549 5.53051C11.5461 5.20174 11.6736 4.20792 11.6736 3.50286C11.6736 1.29895 12.0074 0.380134 11.0223 0.142616C10.6948 0.0638606 10.4548 0.0113567 9.61848 0.00260608C8.54591 -0.00864474 7.63709 0.00635635 7.1233 0.257625C6.78078 0.425137 6.51701 0.798915 6.67827 0.820166C6.87703 0.846418 7.32707 0.941425 7.56583 1.26645C7.87461 1.68523 7.86336 2.6278 7.86336 2.6278C7.86336 2.6278 8.04087 5.22174 7.44958 5.54426C7.0433 5.76553 6.487 5.31425 5.29317 3.25034C4.68187 2.19402 4.21934 1.02518 4.21934 1.02518C4.21934 1.02518 4.13058 0.807665 3.97182 0.691407C3.77931 0.550146 3.50929 0.505143 3.50929 0.505143L0.651577 0.522644C0.651577 0.522644 0.222795 0.535146 0.0652839 0.721409C-0.0747264 0.887671 0.054033 1.2302 0.054033 1.2302C0.054033 1.2302 2.2917 6.46433 4.82438 9.10327C7.1483 11.5222 9.786 11.3634 9.786 11.3634H10.9811C10.9811 11.3634 11.3424 11.3234 11.5261 11.1247C11.6961 10.9422 11.6899 10.5996 11.6899 10.5996C11.6899 10.5996 11.6661 8.99577 12.4112 8.7595C13.145 8.52698 14.0876 10.3096 15.0864 10.9959C15.8414 11.5147 16.4152 11.4009 16.4152 11.4009L19.0867 11.3634C19.0867 11.3634 20.4843 11.2772 19.8217 10.1784Z" fill="#FEFEFE"/>
</svg>
